<?xml version="1.0" encoding="UTF-8"?>
<svg id="Layer_2" data-name="Layer 2" xmlns="http://www.w3.org/2000/svg" xmlns:xlink="http://www.w3.org/1999/xlink" viewBox="0 0 46.99 40.35">
  <defs>
    <style>
      .cls-1 {
        fill: url(#linear-gradient);
      }

      .cls-1, .cls-2, .cls-3 {
        stroke-width: 0px;
      }

      .cls-4 {
        filter: url(#drop-shadow-1);
      }

      .cls-2 {
        fill: #fff;
      }

      .cls-3 {
        fill: url(#linear-gradient-2);
      }
    </style>
    <filter id="drop-shadow-1" filterUnits="userSpaceOnUse">
      <feOffset dx="0" dy="0"/>
      <feGaussianBlur result="blur" stdDeviation="0"/>
      <feFlood flood-color="#000" flood-opacity="0"/>
      <feComposite in2="blur" operator="in"/>
      <feComposite in="SourceGraphic"/>
    </filter>
    <linearGradient id="linear-gradient" x1="1.09" y1="30.08" x2="46.99" y2="30.08" gradientUnits="userSpaceOnUse">
      <stop offset=".03" stop-color="#37dd00"/>
      <stop offset="1" stop-color="#8af969"/>
    </linearGradient>
    <linearGradient id="linear-gradient-2" x1=".95" y1="10.34" x2="46.95" y2="10.34" xlink:href="#linear-gradient"/>
  </defs>
  <g id="Layer_1-2" data-name="Layer 1">
    <g class="cls-4">
      <g>
        <path class="cls-2" d="m23.32,28.24c-2.29,3.07-4.56,6.02-6.85,9.32-1.35,1.95-2.56,2.78-4.41,2.72-3.11-.11-6.36-.05-9.54-.06-.65,0-1.29-.09-2.38-.18,3.71-5.74,7.04-11.11,10.58-16.15.68-.97,2.19-.65,3.32-.93l.19.67c.02.08,0,.17-.04.24-2.51,3.92-5.03,7.85-7.98,12.47,3.64,0,7.11.88,9.73-3.56,1.89-3.19,3.63-5.94,5.57-8.72,3.8-5.42,9.54-5.68,13.48-.72.57.71,1.09,1.5,1.61,2.29,2.99,4.62,5.97,9.25,9.43,14.62-2.88,0-5.52.04-7.92.09-5.23.11-7.83-1.21-11.56-7.48-1.09-1.83-2.31-3.34-3.24-4.63Zm17.32,8.11c-2.58-3.43-5.01-7.11-7.67-10.39-2.34-2.87-5.55-3-8.1-.07,2.39,3.24,4.71,6.42,7.07,9.53.36.48.92.85,1.4.87,2.43.12,4.86,0,7.29.05Z"/>
        <path class="cls-2" d="m14.08.1c.6.02,1.28,1,1.77,1.75,2.37,3.6,4.68,7.27,6.58,10.24,2.62-3.46,5.09-6.9,7.7-10.09.8-.98,1.94-1.81,2.95-1.87,3.45-.22,6.91-.07,10.36-.04.65,0,1.32,0,2.56.08-3.63,5.68-7.11,11.17-10.6,16.18-.67.97-2.19.63-3.32.89h0c-.14-.49-.06-1.02.22-1.46,2.34-3.7,4.71-7.43,7.41-11.7-3.75.37-6.13-1.57-9.55,3.83-1.79,2.83-3.65,5.44-5.42,8.08-3.83,5.7-9.66,6.36-13.6,1C7.22,11.66,3.71,5.67,0,.01c4.69,0,9.39-.08,14.08.08Zm-8.95,3.9c2.53,3.3,5.02,6.66,7.56,9.93,2.39,3.07,5.66,3.53,8.49.59-2.41-3.31-4.72-6.53-7.07-9.67-.36-.48-.94-.78-1.43-.8-2.52-.12-5.03,0-7.55-.06Z"/>
      </g>
      <g>
        <path class="cls-1" d="m24.28,28.24c-2.29,3.07-4.56,6.02-6.85,9.32-1.35,1.95-2.56,2.78-4.41,2.72-3.11-.11-6.36-.05-9.54-.06-.65,0-1.29-.09-2.38-.18,3.71-5.74,7.04-11.11,10.58-16.15.68-.97,2.19-.65,3.32-.93l.19.67c.02.08,0,.17-.04.24-2.51,3.92-5.03,7.85-7.98,12.47,3.64,0,7.11.88,9.73-3.56,1.89-3.19,3.63-5.94,5.57-8.72,3.8-5.42,9.54-5.68,13.48-.72.57.71,1.09,1.5,1.61,2.29,2.99,4.62,5.97,9.25,9.43,14.62-2.88,0-5.52.04-7.92.09-5.23.11-7.83-1.21-11.56-7.48-1.09-1.83-2.31-3.34-3.24-4.63Zm17.32,8.11c-2.58-3.43-5.01-7.11-7.67-10.39-2.34-2.87-5.55-3-8.1-.07,2.39,3.24,4.71,6.42,7.07,9.53.36.48.92.85,1.4.87,2.43.12,4.86,0,7.29.05Z"/>
        <path class="cls-3" d="m15.03.1c.6.02,1.28,1,1.77,1.75,2.37,3.6,4.68,7.27,6.58,10.24,2.62-3.46,5.09-6.9,7.7-10.09.8-.98,1.94-1.81,2.95-1.87,3.45-.22,6.91-.07,10.36-.04.65,0,1.32,0,2.56.08-3.63,5.68-7.11,11.17-10.6,16.18-.67.97-2.19.63-3.32.89h0c-.14-.49-.06-1.02.22-1.46,2.34-3.7,4.71-7.43,7.41-11.7-3.75.37-6.13-1.57-9.55,3.83-1.79,2.83-3.65,5.44-5.42,8.08-3.83,5.7-9.66,6.36-13.6,1C8.17,11.66,4.66,5.67.95.01c4.69,0,9.39-.08,14.08.08Zm-8.95,3.9c2.53,3.3,5.02,6.66,7.56,9.93,2.39,3.07,5.66,3.53,8.49.59-2.41-3.31-4.72-6.53-7.07-9.67-.36-.48-.94-.78-1.43-.8-2.52-.12-5.03,0-7.55-.06Z"/>
      </g>
    </g>
  </g>
</svg>